/* XPM */
static char *bitcoin128[] = {
/* columns rows colors chars-per-pixel */
"128 128 33 1 ",
"  c #C3C3C3",
". c #CAC6C4",
"X c #CDC9C6",
"o c #C4C5CA",
"O c #C7C9CE",
"+ c #CDCDCD",
"@ c #D0C7C2",
"# c #D4CCC6",
"$ c #D4CCC9",
"% c #D9CECA",
"& c #D5D1CD",
"* c #DBD2CC",
"= c #C2C7D1",
"- c #C5CBD3",
"; c #C9CDD4",
": c #C9CFD9",
"> c #CDD2D6",
", c #CED4DC",
"< c #D5D5D5",
"1 c #DCD6D4",
"2 c #DDD9D5",
"3 c #D4D6DB",
"4 c #D5DADF",
"5 c #DDDDDD",
"6 c #E2DBD4",
"7 c #E1DEDC",
"8 c #E2E0DF",
"9 c #D1D7E0",
"0 c #D7DCE2",
"q c #DCDEE1",
"w c #DFE0E2",
"e c #E0E0E0",
"r c None",
/* pixels */
"rrrrrrrrrrrrrrrrrrrrrrrrrrrrrrrrrrrrrrrrrrrrrrrrrrrrrrrrr              rrrrrrrrrrrrrrrrrrrrrrrrrrrrrrrrrrrrrrrrrrrrrrrrrrrrrrrrr",
"rrrrrrrrrrrrrrrrrrrrrrrrrrrrrrrrrrrrrrrrrrrrrrrrrrr                          rrrrrrrrrrrrrrrrrrrrrrrrrrrrrrrrrrrrrrrrrrrrrrrrrrr",
"rrrrrrrrrrrrrrrrrrrrrrrrrrrrrrrrrrrrrrrrrrrrrrrr                                rrrrrrrrrrrrrrrrrrrrrrrrrrrrrrrrrrrrrrrrrrrrrrrr",
"rrrrrrrrrrrrrrrrrrrrrrrrrrrrrrrrrrrrrrrrrrrr                                        rrrrrrrrrrrrrrrrrrrrrrrrrrrrrrrrrrrrrrrrrrrr",
"rrrrrrrrrrrrrrrrrrrrrrrrrrrrrrrrrrrrrrrrr             .O+<+<+<<< +&<>&<+ O             rrrrrrrrrrrrrrrrrrrrrrrrrrrrrrrrrrrrrrrrr",
"rrrrrrrrrrrrrrrrrrrrrrrrrrrrrrrrrrrrrrr          ..++<55eeeeeeeeeeeeww8e<&3&+            rrrrrrrrrrrrrrrrrrrrrrrrrrrrrrrrrrrrrrr",
"rrrrrrrrrrrrrrrrrrrrrrrrrrrrrrrrrrrrr         X>>55eeeeeeeeew8eeeeeeeee3 O5ee55<>          rrrrrrrrrrrrrrrrrrrrrrrrrrrrrrrrrrrrr",
"rrrrrrrrrrrrrrrrrrrrrrrrrrrrrrrrrrr        ++<48weeeeeeeeeeeeeeeeeeeee<. <eeeeeeee<<         rrrrrrrrrrrrrrrrrrrrrrrrrrrrrrrrrrr",
"rrrrrrrrrrrrrrrrrrrrrrrrrrrrrrrrr        +<e84X<eeeeeeeeeeeeeeeew8w8e3. 2eeeeeeeeeee4<+        rrrrrrrrrrrrrrrrrrrrrrrrrrrrrrrrr",
"rrrrrrrrrrrrrrrrrrrrrrrrrrrrrrr        >5eee<  <eeeeeeeeeeeeeeee8w8w<  <eeeeeeeeeeee88e2<        rrrrrrrrrrrrrrrrrrrrrrrrrrrrrrr",
"rrrrrrrrrrrrrrrrrrrrrrrrrrrrr        <5eeee<X <weeeeeeeeeeeeeeeew8w<. <eeeeeeeeeeeeew8w8e++       rrrrrrrrrrrrrrrrrrrrrrrrrrrrrr",
"rrrrrrrrrrrrrrrrrrrrrrrrrrrr       <5eeeee4  <eeeeeeeeeeeeeeeeee8w<. 4eeeeeeeeeeeeee8w8e+ &8>       rrrrrrrrrrrrrrrrrrrrrrrrrrrr",
"rrrrrrrrrrrrrrrrrrrrrrrrrrr     X+<eeeeee<X <eeeeeeeeeeeeeeeeeeew<X <eeeeeeeeeeeeeee884+ +48e<+      rrrrrrrrrrrrrrrrrrrrrrrrrrr",
"rrrrrrrrrrrrrrrrrrrrrrrrr       <eeeeeee<  <eeeeeeeeeeeeeeeeee8w< .<eeeeeeeeeeeeeeee85+ +e88eee<       rrrrrrrrrrrrrrrrrrrrrrrrr",
"rrrrrrrrrrrrrrrrrrrrrrrr      +5eeeeeew<  4eeeeeeeeeeeeeeeeeeee< .<weeeeeeeeeeeeeeeee+ +eeeeeeee5+      rrrrrrrrrrrrrrrrrrrrrrrr",
"rrrrrrrrrrrrrrrrrrrrrrr      <e5eeeeee< X<eeeeeeeeeeeeeeeeeeee<  <wweeeeeeeeeeeeeee5+ +eeeeeeeeeee<      rrrrrrrrrrrrrrrrrrrrrrr",
"rrrrrrrrrrrrrrrrrrrrrr     +<eeeeeew8<  <weeeeee8w8888w88wwwe<  4w88w8w8eeeeee88w85+ +eeeeeeeeeeeee<+     rrrrrrrrrrrrrrrrrrrrrr",
"rrrrrrrrrrrrrrrrrrrrr     +qeeeeeew8<XX<wweeeeeew8wwww8ww8ww<X <8ww88ww8eeeeeew8ee+ +5eeeeeeeeeeeee85+     rrrrrrrrrrrrrrrrrrrrr",
"rrrrrrrrrrrrrrrrrrrr     <eeeeeeeee<  <eeeeeeeee88w88w888ww< X<ew88ww88weeeeeee85+ +5eeeeeeeeeeeee8ww5<      rrrrrrrrrrrrrrrrrrr",
"rrrrrrrrrrrrrrrrrrr    .<eeeeeeeew<o 48eeeeeeeeeee8w88w8w8<  3ee8ww888w8eeeeeee4+ +5eeeeeeeeeeeeeewww<.+      rrrrrrrrrrrrrrrrrr",
"rrrrrrrrrrrrrrrrrr     <eeeeeeeee<X <eeee8eeeeeeeeee8w8w8<  <8eeeeeew88eeeeeee5+ +5eeeeew88ew88weeee<.o<<     rrrrrrrrrrrrrrrrrr",
"rrrrrrrrrrrrrrrrr     <eeeeeeeee<o <eeeeeeeeeeeeeeeewww8<X <eeeeeeee8weeeeeee5+ +eeeeeee8wee8w88eee< .<we<     rrrrrrrrrrrrrrrrr",
"rrrrrrrrrrrrrrrr     <eeeeeeeee2X <eeeeeeeeeeeeeeeeew8w< X48eeeeeeeeeeeeeeeee+ +48eeeeeew88ww8wwww<X.3eeee<.    rrrrrrrrrrrrrrrr",
"rrrrrrrrrrrrrrr     <eeeeeeeee3  <eeeeeeeeeeeeeeeeee8w<  <w8eeeeeeeeeeeeeee5+ +588eeeeee88w8w8www<X <eeeeee3     rrrrrrrrrrrrrrr",
"rrrrrrrrrrrrrr     <w88weeeee<..<eeeeeeeeeee8w88eew8w<  <eeeeeeeeeeew8weew5+ +5eeeeeeeeeeeeeeeew<  <8w8weeee<.    rrrrrrrrrrrrrr",
"rrrrrrrrrrrrr     <w88w8eeww<  3eeeeeeeeeee8w8wweeww<X <eeeeeeeeeeee8w88e5+ +eeeeeeeeeeeeeeeeee< .<w88w8eeeee3     rrrrrrrrrrrrr",
"rrrrrrrrrrrrr    +88w88weee2 .<weeeeeeeeeew888w8eee<  5eeeeeeeeeeeee88ww5+ +5eeeeeeeeeeeeeeeee<  <w88w8weeeeee<    rrrrrrrrrrrrr",
"rrrrrrrrrrrr    +8w88ww8ee< o<eeeeeeeeeeee8w8w8wee<  <eeeeeeeeeeeeeew8w5+ +5eeeeeeeeeeeeeeeew<X 4w8ww8w8eeeeeee+    rrrrrrrrrrrr",
"rrrrrrrrrrr     <8w88w8ww3 X<eeeeeeeeeeeeeee8w88w<  48w8eeeeeeeeee8w8w5+ +5w8weeeeeeeeeeeew8<.X<w88w8w8weeeeeee<     rrrrrrrrrrr",
"rrrrrrrrrrr    <ww8ww8w8<X <eeeeeeeeeeeeeeeew8w8< X<88e8eeeeeeeeeew885+ +eeew8eeeeeeeeeeeew<X <888w8w8w8eeeeeeee<    rrrrrrrrrrr",
"rrrrrrrrrr    +88ww88ww3  <eeweeeeeeeeeeeeeew8w< X<weeeeeeeeeeeeeww85& +5eee8eeeeeeeeeeeee<  <www88w8w8weeeeeeee5+    rrrrrrrrrr",
"rrrrrrrrr     58w88www< X<eeeeeeeeeeeeeeeeeeww< o<eeeeeeeeeeeeeee58ww55e8eee8eeeeeeeeeeee<  <www8ww8w8w8eeeeeee< +     rrrrrrrrr",
"rrrrrrrrr    &www88w8<  <w8weeeeeeeew88eeew8w<  <w8w888w88w8<45e5555wweeeeeeeeeeeeeeeee8<  <eeee8w8eeeeeeeeeee<X 4<    rrrrrrrrr",
"rrrrrrrr    O5ee8ww8<Xo<www8eeeeeeee8weeeeww<X 28ww88w88e<&>   . .  &&><eeeeeeeeeeeeeee<..<eeeeew88weeeeeeeee< o<we+    rrrrrrrr",
"rrrrrrrr    2weewww< X<ew88weeeeeeeew88weee<  4ew8e88<>+                ++<eee5eeeeeee4 o<eeeeee88w8eeeeeeee< X<8we<    rrrrrrrr",
"rrrrrrr    &weeeww<  <ee88w8eeeeeeee88w8ee<  <eew64>+                      +<555eeeee<  <weeeeeew88weeeeeee3  <e88ww>    rrrrrrr",
"rrrrrrr    5eeee8< X<eeew8w8w8eeeeeeee8we<  2eew>+                             <eeee<X <ww8weeeeeeeeeeeeee<X <eew8ee5    rrrrrrr",
"rrrrrr    <eeeee<+ <eeee8w8we8eeeeeeeeww4 X2ee84                                <eee<X<ww8w8eeeeeeeeeeeee3  <eee8weee<    rrrrrr",
"rrrrrr    5eeee<  <eeeee8w88eeeeeeeeeee<  <w85+                                  +w8858w8w8weeeeeeeeeeee<X <wweeweeee5    rrrrrr",
"rrrrr    +weee<  <weeeeew8w8eeeeeeeeee< +<8w<                                     ;ww8w8w8w8eeeeeeeee8w< X<88wee88eeee<    rrrrr",
"rrrrr    <eee<. <eeeeeeeeew888w8eeeew< +ewe<                                       :eeeeeeeeeeeeeeeew8<  <w8eeeeeeeeee5.   rrrrr",
"rrrrr   +eee<. 3eeeeeeeee88www8weeew<  e882                                        o4eeeeeeeeeeeeeeew< .488weeeeeeeeee5+    rrrr",
"rrrr    <ee< .38eeeeeeeeeew88w88eee<X <8e5X                                         :weeeeeeeeee8wee4..<8w8weeeeeeeeeee<    rrrr",
"rrrr   X5e<  <8weeeeeeeeee88w8w8ee<X <w88*                  ++>>+                    4eeeeeeeeeew8w<  <888w8eeeeeeeeeee5X   rrrr",
"rrr    +w<  4w8weeeeeeeeeeeew8wwe< o<www1                  <eeee85<X                 ,weeeeeeeee8w<X 38ww8eeeeeeeeeeeeee+    rrr",
"rrr    << X<w8w8eeeeeeeeeeee8w88<X <ee88#                 5eeeee8886                 ;weeeeeeeee8<  <ww88w88eeeeeeeeee5<+    rrr",
"rrr   .e<X<88w8weeeeeeeeeeeew8w<oX<e8e87X               o0eeeeeew8ee#                :w8eeeeeewe< X<ww8www8weeeeeeeee5+ <.   rrr",
"rrr   >w55w8w8w8eeeeeeeeeeeeww<  <ee8w8*                :eeeeeee8w882                =weeeeeeew<  <ww8w888w8eeeeeeee5+ +5>   rrr",
"rr    &weeeeeeeeeeeeeeeeeeeee<X <eeeeee2X               4w88w8eew8w88#               =0eeeeeee<  <eeeeeeeeeeeeeeeee5+ +5w<    rr",
"rr    5eeeeeeeeeeeeeeeeeeeee<  <eeeeee8w55<<&X         -0ew88wee8w8w8#               =weeeeeee<.<eeeeeeeeeeeeeeeee5+ +5ee5    rr",
"rr   O5weeeeeeeeeeeeeeee88w< .<8eeeeeeeeeeeeee55<<&X   -eeeeweeeeew86@               ;weeeeeeee<eeeeeeeeeeeeeeeew5+ +5eee5    rr",
"rr   &eeeeeeeeeeeeeeeeee884. 4wweeeeeeeeeeeeeeeewweee2<4eeee88eeee8w*                =eeeeeeeeeeeeeeeeeeeeeeeeeee+ +5eeeee&   rr",
"rr   +eeeeeeeeeeeeeeeeeew<  <eeeeeeeeeeeeeeeeeeeeeeew8w8eeeeeeeeee88#                4eeeeeeeeeeeeeeeeeeeeeeeee5+ +eeeeeee&    r",
"r    <eeeeeeeeeeeeeeeeee<X 4weeeeeeeeeeeeeeeeeeeeeee8w8weeeeeeeeee8*                =eeeeeeeeeeeeeeeeeeeeeeeee5+ +5eeeeeee3    r",
"r   .5eeeeeeeeeeeeeeeee<  <e88eeeeeeeeeeeeeeeeeeeeeeee8eeeeeee8885&                 3eeeeeeeeeeeeeeeeeeeeeeeee+ +5eeeeeeee5    r",
"r   O5eeeeeeeeeeeeeeee<  <eeeeeeeeeeeeeeeeeeeeeeeeeeeeeeeeee558<&                  -weeeeeeeeeeeeeeeeeeeeeee5+ +5eeeeeeeee5    r",
"r   O5eeeeeeeeeee8w8w<X 3w8weeeeeeeeeeeeeeeeeeeeeeeeeeeeee8#                      o5weeeeeeeeeeeeeee8w8weeee+ +5eeeeeeeeeee.   r",
"    &weeeeeeeeeeewee<  <www8eeeeeeeeeeeeeeeeeeeeeeeeeeeeee6X                     .5weeeeeeeeeeeeeeeew8e8ee5+ +5eeeeeeeeeeee+    ",
"    &weeeeeeeeeeeee<..<88w8weeeeeeeeeeeeeeeeeeeeeeeeeeee8w5.                    O5eeeeeeeeeeeeeeeeeeeeeee5+ +5eeeeeeeeeeeee<    ",
"    <eeeeeeeeeeeee<  <w8w8w8eeeeeeeeeeeeeeeeeeeeeeeeeeeeww6                     5eeeeeeeeeeeeeeeeeeeeeee5+ +5eeeeeeeeeeeeee<    ",
"    .5eeeeeeeew8e<..<w8w8888w8eeeeeeeeeeeeeeeeeeeeeeeeee8w2                   ,weeeeeeeeeeeeeeeeeeeeeeee+ +5eeeeeeeeeeeeeew&    ",
"    >weweeeeee8w3. <www88ww88we8eeeeeeeeeeeeeeeeeeeeeeeew86                   O;5weeeeeeeeeeeeeeeeeeee5+ +5eeeeeeeweeeeeeww&    ",
"    &weeeeeeeee<..<ww8www88www8weeeeeeeeeeeeeeeeeeeeeeee8w6.                     ;5weeeeeeeeeeeeeeeee5+ +eeeeeeeee8eeeeeee5>    ",
"    &weeeeeeee<  3ww8ww88ww888w8eeeeeeeeeeeeeeeeeeeeeeee8w6.                      o>weeeeeeeeeeeeeee5+ +5eeeeeeeeeeeeeeeee5+    ",
"    <wee8w8884  <eeeeeeeeee8w88weeeeeeeeeeeeeeeeeeeeeeee88*                         o,wweeeeeeeeeeee+ +5w88w88eeeeeew8w8w8e4    ",
"    &wee88w8<  <eeeeeeeeeee88w88eeeeeeeeeeeeeeeeeeeeeeee88#                          =w5eeeeeeeeee5+ +5e8ww8eeeeeeee8w8w8<<&    ",
"    <eeew8w4 X<eeeeeeeeeee8ww88weeeeeeeeeeeeeeeeeeeeeeeeeeX                          o,weeeeeeeee5+ +58ww88weeeeeeeew8ww< +&    ",
"    <eeeee<  <eeeeeeeeeeeew8w8wweeeeeeeeeeeeeeeeeeeeeeeeee+  X>&                      o0eeeeeeeee5 +e8w888w8eeeeeeee8ww<X <>    ",
"    &eeee< X<eeeeeeeeeeeeeeeeeeweeeeeeeeeeeeeeeeeeeeeeeeee5550ww2e51X                  =weeeeeeee<+5eeee5www88w8ee8w8w<  <e&    ",
"    <wee< X<eeeeeeeeeeeeeeee55<weeeeeeeeeeeeeeeeeeeeeeeeeeeeee8weeeee*                  5eeeeeeee<5eeeeew888ww8wee8ww<X <ee>    ",
"    >ww<  3eeeeeeeeeeeeeeeee5+&eeeeeeeeeeeeeeeeeeeeeeeeeeeeeeeeeeeeee5#                 ,weeeeeeeeeeeeeew8w88w88ewww< .<wwe&    ",
"    +w<X <eeeeeeeeeeeeeeeeee+ <eeeeeeeeeeeeeeeeeeeeeeeeeeeeeeeeeeeeeee6.                Oweeeeeeeeeeeeee8w88w8wwe58< .<wwwe     ",
"r    <.O<eeeeeeeeeeeeeeeee5+ +eeeeeeeeeeeeeeeeeeeeeeeeeeeeeeeeeeeeeeee8#                ;5888w5weeeeeeeeeeeew8w8ww<X <88w8e    r",
"r    5<<eeeeeeeeeeeeeeeeee+ +4eeeeeeeeeeeeeeeeeeeeee5eeeeeeeeeeeeeeeeee1                =5www8w8eeeeeeeeeeee8w8ww< .<8ww8ww    r",
"r    5eeeeeeeeeeeeeeeeee5+ +58eeeeeeeeeeeeeeeeeeeeeeeeeeeeeeeeeeeeeeeee6                o4w88w8weeeeeeeeeeeew8ww<. <w8w8wwe    r",
"r    <eeeeeeeeeeeeeeeee5+ +e88eeeeeeeeeeeeeeeeeeeeeeeeeeeeeeeeeeeeeeeee5                o58w888weeeeeeeeeeee8ww<  <w8w8w88&    r",
"rr   &wweeeeeeeeeeeeee5+ +58eeeeeeeeeeeeeeeeeee8ww5552<3eeeeeeeeeeeew8e2                oqww88w8eeeeeeeeeeeeee3. <w88w88ww>   rr",
"rr   +eeeeeeeeeeeeeeee+ +588eeeeeeeeeeeeee5552<+>&.    ;eeeeeeeeeeee88e5                =08qw88weeeeeeeeeeeee< .488ww8w88e+   rr",
"rr   .5eeeeeeeeeeeee5+ +48eeeeeeeeeeee1&+<+ .          o5eeeeeeeeeee886@                :wee8w8weeeeeeeeeeee<. <w8w88w8ww5.   rr",
"rr    <eeeeeeeeeeee5+ +5eeeeeeeeeeeeee2                 4eeeeeeeeeee776                 ;eeew8w8eeeeeeeeeee<.O388w8ww8w88<    rr",
"rr    >eeeeeeeee88e+ +eeeeeeeeeeeeee8w8X                 00eeeeeeeeeee8X                ,w8w8w8ww8w8w8wwww3  <eew8w888w8w&    rr",
"rrr   .weeeeeeee85+ +4eeeeeeeeeeeeeew88#                 ,eeeeeeeeeeee1                 5ww8w8w88w888w8ww<. <eee8w8ww88ww+   rrr",
"rrr    5eeee8wee5+ +8eeeeeeeeeeeeeee8w86.                -eeeeeeeeeee7@                 w8w8888w8w8ww8ww<..<eeee8ww88w8w5    rrr",
"rrr    <eeeew8we+ +48eeeeeeeeeeeeeeew8w8#                 >e8eeeeeee5.                 =8w8ww5w8w8w8w8w<. <eeeeew88ww8ww&    rrr",
"rrrr   .eeew8e5+ +eeeeeeeeeeeeeeee8w258w6                  =4088ee2<X                 =9w8w8w8w888w8ww<  <eeeeee8w8w88ww+   rrrr",
"rrrr    <ee8e5+ +5eeeeeeeeeeeeeeeew3.+ww8#                   +>><+.                   ,w8w8www8ww88ww< X3weeeeee88w8eew<    rrrr",
"rrrr    &w8w5+ +eeeeeeeeeeeeeeeeee<  <w8w6.                                          -qe88w88ww88ww8<XX<w8e8eeeew8wweee&    rrrr",
"rrrrr   .5ee+ +5eeeeeeeeeeeeeeeee<. 3w8www1                                         O0ee5w8w888w88w<  <8ww8weeee8w88ee5    rrrrr",
"rrrrr    >e+ +5e88w8w8eew8we8www<  <8ww88w85+                                      .5eeeeeeew8w8ee<  <w8eeeeeeeeeeeeee<    rrrrr",
"rrrrrr   ++ +eeew88we8ee8w8ew8w<X <ww88ww8w85&                                    >5eeeeeeee8w8ww< X4w8weeeeeeeeeeeeee+   rrrrrr",
"rrrrrr    +<5eee8ww8eeeew8ee8w<  <w88w888w8w8w<+                                +38eeeeeeeeew8w8<. <w8w8eeee5eee8weee<    rrrrrr",
"rrrrrrr   +eeeeew88weeee8wee8< X<w8w88w8w8w8ww8w<                              >eeeeeeeeeeee8w8<  <w8w8weeeeeeeew8ew8+    rrrrrr",
"rrrrrrr    <eeee8w888w8ww8w8<X <eeee8w8w8ww88w8ww5&                         .<5e8eeeeeeeeeeeee4  <8ww88weeeeeeee8eee3    rrrrrrr",
"rrrrrrr    +eeeew8w8w8w88w8<  3weewew5w8w88ww8w8wwwe<+                    +<5eeeeeeeeeeeeeeee< .<8w88ww8eeeeeeeew8ee.    rrrrrrr",
"rrrrrrrr    +eeew8w88w8www<X.<8w8w8w8ww88ww88w8w5<ee8e5<&             .&+55eeeeeeeeeeeeeeeee<  <ww8ww88weeeeeeeeeee&    rrrrrrrr",
"rrrrrrrrr   .5ee8w8w8ww8w<  <8w8w8w88w8w88w8w88<  <eee8we5<<<>+<+++<<wweq5wweeeeeeeeeeeeeee< .38w88w8w88eeeeeeeeee5O    rrrrrrrr",
"rrrrrrrrr    +5eeeeew8w8<XX<ww8weeeeeeeeeeeew8<  488w8w8eeeee8w88w88w8eeeeeeeeee8weeeeeeww<o <ee8w8w88w8w8w8w88w85+    rrrrrrrrr",
"rrrrrrrrrr    <eeeee8w8<  <8www8eeeeeeeeeeee84 .<8w88we8eeeeeeee88e4<4eeeeeeeeeew8weeeeee< .<eeew8w8w88w8w8w8ww8w<    rrrrrrrrrr",
"rrrrrrrrrr     5eeeeee3. <8ww888888weeee8wee< .<w8wweeeeeeeeeeeeee+ +5eeeeeeeeee8weeeeee<..<eeee88w8ee8e88eew8ww5.    rrrrrrrrrr",
"rrrrrrrrrrr    +5eeew<  4ww88w8ww8w8eeeee8w<. <w8w88eeeeeeeeeeeee+ +e8eeeeeeeeeew8eeeee<. <eeeee8w8weeee5eee8w85+    rrrrrrrrrrr",
"rrrrrrrrrrrr    <eee< .<eeee8w8ww8w8w8wwee<  4w8eeeeeeeeeeeeeee5+ +5eeeeeeeeeeee8w8wee4 o<w8eeeeeeeeeeeeeeeew8e>    rrrrrrrrrrrr",
"rrrrrrrrrrrr     <e<..<weeeew888888w8w8ww< X<w8weeeeeeeeeeeeee5+ +5eeeeeeeeeeeeew8w8e<. <w8weeeeeeeeeeeeeeee8w<     rrrrrrrrrrrr",
"rrrrrrrrrrrrr    .<oo<88eeeeeeee8w88w8ww<. <88w8eeeeeeeeeeeee5+ +5eeeeeeeeeeeeee8w8w<  <8ww8eeeeeeeeeeeeee8ww5.    rrrrrrrrrrrrr",
"rrrrrrrrrrrrrr    +<3w8weeeeeeeew8ww8ww<  <www8weeeeeeeeeeee5+ +eeeeeeeeeeeeeeeew88< X<8w8wweeeeeeeeeeeew8w85+    rrrrrrrrrrrrrr",
"rrrrrrrrrrrrrrr    +5eeeeeeeeeee8w8w8w<X <eeeeeeeeeeeeeeeeee+ +5eeeeeeeeeeeeeeee8w3 X<wweeeeeeeeeeeeeeeeeee4+     rrrrrrrrrrrrrr",
"rrrrrrrrrrrrrrr     +5eeeeeeeeeew8w88<  <eeeeeeeeeeeeeeeee5+ +5eeeeeeeeeeeeeeeee8< X<wwweeeeeeeeeeeeeeeeee5+     rrrrrrrrrrrrrrr",
"rrrrrrrrrrrrrrrr     +5eeeeeeeee8w8w< X<eeeeeeeeeeeeeeeee5+ +eeeeeeeeeeeeeeeeeee<  <w8w8eeeeeeeeeeeeeeeew6+     rrrrrrrrrrrrrrrr",
"rrrrrrrrrrrrrrrrr     +5eeeeeeeew8w4 .<weeeeeeeeeeeeeee85+ +5eeeeeeeeeeeeeeeeee<X <w8w8weeeeeeeeeeeeeeeee+     rrrrrrrrrrrrrrrrr",
"rrrrrrrrrrrrrrrrrr     +8ww8eeeewe< .<8weeeeeeeeeeeeee85+ +5eeeeeeeeeeeeeeee884  <w88w8weeeeeeeeeeeeeeee+     rrrrrrrrrrrrrrrrrr",
"rrrrrrrrrrrrrrrrrrr     +w8wee5ew<. <ee8eeeeeeeeeeeeee4+ +eeeeeeeeeeeeeeeeeew<  <w88w888eeeeeeeeeeeeeee+     rrrrrrrrrrrrrrrrrrr",
"rrrrrrrrrrrrrrrrrrrr     +<8w8ww3..<ww8weeeeeeeeeeeeee+ +5eeeeeeeeeeeeeeeeee<..<ww8w88w8eeeeeeeeeeeeee+     rrrrrrrrrrrrrrrrrrrr",
"rrrrrrrrrrrrrrrrrrrrr      <8w8<  <eeew8eeeeeeeeeeeee+ +5eeeeeeeeeeeeeeeeee<X <8w8w8ww8weeeeeeeeeeee<      rrrrrrrrrrrrrrrrrrrrr",
"rrrrrrrrrrrrrrrrrrrrrr      +55  2weeeeeeeeeeeeeeeee+ +4eeeeeeeeeeeeeeeeee< X<weeeeeeeeeeeeeeeeew85>      rrrrrrrrrrrrrrrrrrrrrr",
"rrrrrrrrrrrrrrrrrrrrrrr      +5<38eeeeeeeeeeeeeeee2+ +eeeeeeeeeeeeeeeeeee< o<eeeeeeeeeeeeeeeeeee85X      rrrrrrrrrrrrrrrrrrrrrrr",
"rrrrrrrrrrrrrrrrrrrrrrrrr      &eeeweeeeeeeeeeeeee+ +2eeeeeeeeeeeeeeeeee<X <eeeeeeeeeeeeeeeeee85&o     rrrrrrrrrrrrrrrrrrrrrrrrr",
"rrrrrrrrrrrrrrrrrrrrrrrrrr      +<eweeeeeeeeeeee5+ +eweeeeeeeeeeeeeeeee3  <weeeeeeeeeeeeeeeee8<O      rrrrrrrrrrrrrrrrrrrrrrrrrr",
"rrrrrrrrrrrrrrrrrrrrrrrrrrr       &5weeweeeeeee5+ +5eeeeeeeeeeeeeeeeee<XX<eeeeeeeeeeeeeeee5e5&       rrrrrrrrrrrrrrrrrrrrrrrrrrr",
"rrrrrrrrrrrrrrrrrrrrrrrrrrrrr       &5eweeeeeee+ +5eeeeeeeeeeeeeeeeee< X<eeeeeeeeeeeeeeeee5<O       rrrrrrrrrrrrrrrrrrrrrrrrrrrr",
"rrrrrrrrrrrrrrrrrrrrrrrrrrrrrr       o&5eeeeee+ +eeeeeeeeeeeeeeeeeee<  <weeeeeeeeeeeeeee5<        rrrrrrrrrrrrrrrrrrrrrrrrrrrrrr",
"rrrrrrrrrrrrrrrrrrrrrrrrrrrrrrrr        +<eee+ +5eeeeeeeeeeeeeeeeee<  <weeeeeeeeeeeee52>        rrrrrrrrrrrrrrrrrrrrrrrrrrrrrrrr",
"rrrrrrrrrrrrrrrrrrrrrrrrrrrrrrrrr         +><O+5eew8w8w88w8w88eeww<X <w8eeeeeeeewew5<+         rrrrrrrrrrrrrrrrrrrrrrrrrrrrrrrrr",
"rrrrrrrrrrrrrrrrrrrrrrrrrrrrrrrrrrrr        ..<55eww8ww88ww88weew<  <w8weeeeeee55&+         rrrrrrrrrrrrrrrrrrrrrrrrrrrrrrrrrrrr",
"rrrrrrrrrrrrrrrrrrrrrrrrrrrrrrrrrrrrrr           >>6eew8w8wwweee8  <88w8eee55<>            rrrrrrrrrrrrrrrrrrrrrrrrrrrrrrrrrrrrr",
"rrrrrrrrrrrrrrrrrrrrrrrrrrrrrrrrrrrrrrrr             +<&<58we2ee8><558w<><+             rrrrrrrrrrrrrrrrrrrrrrrrrrrrrrrrrrrrrrrr",
"rrrrrrrrrrrrrrrrrrrrrrrrrrrrrrrrrrrrrrrrrrr                    ++ .                  rrrrrrrrrrrrrrrrrrrrrrrrrrrrrrrrrrrrrrrrrrr",
"rrrrrrrrrrrrrrrrrrrrrrrrrrrrrrrrrrrrrrrrrrrrrr                                    rrrrrrrrrrrrrrrrrrrrrrrrrrrrrrrrrrrrrrrrrrrrrr",
"rrrrrrrrrrrrrrrrrrrrrrrrrrrrrrrrrrrrrrrrrrrrrrrrrr                            rrrrrrrrrrrrrrrrrrrrrrrrrrrrrrrrrrrrrrrrrrrrrrrrrr",
"rrrrrrrrrrrrrrrrrrrrrrrrrrrrrrrrrrrrrrrrrrrrrrrrrrrrr                      rrrrrrrrrrrrrrrrrrrrrrrrrrrrrrrrrrrrrrrrrrrrrrrrrrrrr"
};
