/* XPM */
static char *bitcoin32[] = {
/* columns rows colors chars-per-pixel */
"32 32 93 2 ",
"   c gray76",
".  c #C3C2C2",
"X  c #C3C3C3",
"o  c #C4C3C3",
"O  c #C4C4C3",
"+  c #C3C3C4",
"@  c #C3C4C4",
"#  c gray77",
"$  c #C4C4C5",
"%  c #C5C5C5",
"&  c #C6C5C5",
"*  c #C6C6C5",
"=  c #C5C5C6",
"-  c #C6C6C6",
";  c #C7C6C6",
":  c #C6C6C7",
">  c #C6C7C7",
",  c gray78",
"<  c #C8C6C6",
"1  c #C8C7C7",
"2  c #C9C8C7",
"3  c #C6C7C8",
"4  c #C7C7C8",
"5  c #C7C8C9",
"6  c #C8C8C8",
"7  c #C9C9C8",
"8  c gray79",
"9  c #CAC9C9",
"0  c #CACACA",
"q  c #CBCBCB",
"w  c #CDCBCA",
"e  c gray80",
"r  c #CCCDCD",
"t  c #CDCDCD",
"y  c #CDCDCE",
"u  c #CECECE",
"i  c #CECECF",
"p  c gray81",
"a  c #D1CFCE",
"s  c #D0D0D0",
"d  c gray82",
"f  c #D2D1D0",
"g  c #D3D2D1",
"h  c #D2D2D2",
"j  c #D3D2D2",
"k  c #D2D2D3",
"l  c LightGray",
"z  c #D4D4D3",
"x  c #D5D4D3",
"c  c #D1D2D4",
"v  c #D2D3D5",
"b  c #D2D4D5",
"n  c gray83",
"m  c #D4D4D5",
"M  c #D5D5D5",
"N  c #D6D5D5",
"B  c #D7D6D5",
"V  c #D5D5D6",
"C  c gray84",
"Z  c #D7D7D7",
"A  c #D8D6D5",
"S  c #D8D7D7",
"D  c #D7D7D9",
"F  c #D7D8DA",
"G  c #D8D8D8",
"H  c gray85",
"J  c #DAD8D8",
"K  c #DAD9D9",
"L  c #DBDAD9",
"P  c #D9DADA",
"I  c #DADADA",
"U  c #DBDADA",
"Y  c gray86",
"T  c #DCDADA",
"R  c #DCDBDA",
"E  c #DCDCDB",
"W  c #DADADC",
"Q  c #DBDBDC",
"!  c gainsboro",
"~  c #DDDCDC",
"^  c #DCDCDD",
"/  c #DDDDDD",
"(  c #DCDDDE",
")  c #DDDDDE",
"_  c gray87",
"`  c #DEDFDF",
"'  c #DFDFDF",
"]  c #E0DFDF",
"[  c #DFE0E0",
"{  c gray88",
"}  c #E0E0E1",
"|  c #E1E1E1",
" . c None",
/* pixels */
" . . . . . . . . . . . .# # # # 6 # # #  . . . . . . . . . . . .",
" . . . . . . . . .X # 6 h Y Y Y Y n h h e # #  . . . . . . . . .",
" . . . . . . . .# h n n / | | / R n / | / Y e #  . . . . . . . .",
" . . . . . .# e Y / n / | / | Y n / [ | / n Y Y e #  . . . . . .",
" . . . . .# h / / n / / / | / n / | | / D Y ' | / e #  . . . . .",
" . . . .# n / Y n / | | | / n / [ | / n Y | | / Y n z #  . . . .",
" . . .# h / / n / | | / / n / / ] / n Y / / | Y n | / h #  . . .",
" . . .e / / n / / | | / n / | | [ Y Y ] | | Y n | | | / 6  . . .",
" . .6 Y / n / | / / / n Y n h 6 e p n / | Y n / [ | / n n 4  . .",
" . .e Y n / | | | / n n 6 $ X X X # # 6 n Y | | / / n R | h X  .",
" .6 n n / / / | / n h # X X $ 2 # # X X # W | / / n / | / Y #  .",
" .e n / | | | / n R 6 # X $ c / Y 6 $ @ # b | / n / | / / Y 6  .",
"# h | / | | / n / ] S h e p / | ] w o o # b | W Y | | | Y Y e # ",
"# n | / | Y n / ] | [ | ] ] ] ~ x # X o # W | | / | / n Y / n # ",
"# Y / | Y n / / | [ ] ] | | J 2 # o X # n | | | | / n Y / | Y # ",
"6 Y | Y n / | | ] | | [ [ ] n # X + + 6 n [ / | / Y Y | | | / # ",
"# Y / n / | ' | | | | | | | n 6 6 # X X @ c [ [ Y n / | | / h # ",
", n n / ' | / Y | / | / ] | / / / a o X $ 4 W | / | | | / n n # ",
"# n / | | / n Y / | | | / | [ | | R # o X # D | | | | / n Y Y # ",
"# h | | / n Y ' | / z h e e ( | | E # o X @ D ] | / / n Y | h # ",
" .e | / n Y ' | ] J # o X $ c | / x # O X 5 W | | / n Y | / e  .",
" ., Y n Y | | ' Y Y h # X # # e e # # # # c | | / n Y | | Y #  .",
" .X e Y | ' | Y n / / x 6 # o # X o o # h / | / n Y | | | h #  .",
" . ., Y [ ' J n | | ] / n h e 6 6 e h Y | | / n Y | / | Y 6  . .",
" . .# e / n n | | | / n / | / / n / | | | / n Y | / | / e #  . .",
" . . .# h Y | | | / n Y / | | n Y / | / / n Y | | | | n #  . . .",
" . . . .# n ' | / n Y | | / Y Y / | | / n / / | | | n #  . . . .",
" . . . . .# b E n Y | / / Y n | | | / n Y | | | / n #  . . . . .",
" . . . . . .# a Y | / / n Y | / / / n / | / | / h #  . . . . . .",
" . . . . . . .# 6 n / Y Y / | | / n Y | | / h 6 #  . . . . . . .",
" . . . . . . . . .# 6 6 h Y / Y n n Y h e 6 #  . . . . . . . . .",
" . . . . . . . . . . . .# # 6 6 6 6 # #  . . . . . . . . . . . ."
};
