/* XPM */
static char *bitcoin64[] = {
/* columns rows colors chars-per-pixel */
"64 64 164 2 ",
"   c gray76",
".  c #C3C2C2",
"X  c #C3C3C2",
"o  c #C2C3C3",
"O  c #C3C3C3",
"+  c #C4C3C2",
"@  c #C4C3C3",
"#  c #C4C4C3",
"$  c #C5C4C3",
"%  c #C6C4C3",
"&  c #C2C3C4",
"*  c #C3C3C4",
"=  c #C3C4C4",
"-  c #C3C4C5",
";  c gray77",
":  c #C5C4C4",
">  c #C4C4C5",
",  c #C5C5C5",
"<  c #C6C5C4",
"1  c #C7C5C4",
"2  c #C7C6C5",
"3  c #C4C4C6",
"4  c #C4C5C6",
"5  c #C5C5C6",
"6  c #C4C5C7",
"7  c #C5C6C7",
"8  c #C6C6C6",
"9  c #C7C6C6",
"0  c gray78",
"q  c #C8C6C5",
"w  c #C9C7C5",
"e  c #C8C7C7",
"r  c #CBC8C6",
"t  c #CAC8C7",
"y  c #C4C5C8",
"u  c #C5C7C9",
"i  c #C6C7C9",
"p  c #C5C7CA",
"a  c #C7C8C9",
"s  c #C5C8CB",
"d  c #C6C8CB",
"f  c #C7C8CB",
"g  c #C7C9CB",
"h  c #C8C8C8",
"j  c #C9C8C8",
"k  c #C9C9C8",
"l  c #C8C8C9",
"z  c gray79",
"x  c #CACAC9",
"c  c #C8C9CA",
"v  c #C9CACA",
"b  c #CACACA",
"n  c #CBCBCB",
"m  c #CFCAC8",
"M  c #CDCACA",
"N  c #CCCBCB",
"B  c #C9CACC",
"V  c #C8CACD",
"C  c #C9CBCE",
"Z  c #C9CBCF",
"A  c gray80",
"S  c #CDCDCD",
"D  c #CECDCD",
"F  c #CFCDCD",
"G  c #CECECE",
"H  c gray81",
"J  c #D0CCCA",
"K  c #D0CDCB",
"L  c #D3CFCD",
"P  c #D1CFCE",
"I  c #D0CFCF",
"U  c #D2CECE",
"Y  c #D2D0CE",
"T  c #D4D0CC",
"R  c #CDCED1",
"E  c #CECED3",
"W  c #CFD0D3",
"Q  c #CED0D4",
"!  c #CFD0D5",
"~  c #D0D0D0",
"^  c #D1D0D0",
"/  c #D0D1D1",
"(  c gray82",
")  c #D0D1D2",
"_  c #D0D2D3",
"`  c #D2D2D2",
"'  c #D3D2D2",
"]  c LightGray",
"[  c #D6D2D0",
"{  c #D4D2D2",
"}  c #D5D3D2",
"|  c #D6D4D2",
" . c #D7D4D2",
".. c #D1D2D4",
"X. c #D1D3D6",
"o. c #D0D3D7",
"O. c #D1D3D7",
"+. c #D3D5D7",
"@. c gray83",
"#. c #D5D4D4",
"$. c #D5D5D5",
"%. c #D6D5D4",
"&. c #D5D5D6",
"*. c gray84",
"=. c #D7D6D6",
"-. c #D7D7D6",
";. c #D7D7D7",
":. c #D8D4D0",
">. c #D8D4D1",
",. c #DBD7D5",
"<. c #D8D7D6",
"1. c #DCD9D7",
"2. c #DCDAD7",
"3. c #D3D5D9",
"4. c #D3D6D9",
"5. c #D7D7D8",
"6. c #D4D6DA",
"7. c #D6D7DA",
"8. c #D7D9DC",
"9. c #D8D8D8",
"0. c gray85",
"q. c #D8D8DA",
"w. c #DADADA",
"e. c #DBDBDA",
"r. c #DADADB",
"t. c gray86",
"y. c #DCDAD8",
"u. c #DDDBDA",
"i. c #DCDBDB",
"p. c #DDDBDB",
"a. c #DEDCDA",
"s. c #DFDDDB",
"d. c #D9DADD",
"f. c #DADBDE",
"g. c #DBDCDD",
"h. c #DBDCDF",
"j. c gainsboro",
"k. c #DDDDDC",
"l. c #DDDDDD",
"z. c #DFDDDC",
"x. c #DEDDDD",
"c. c #DEDEDD",
"v. c #DFDEDD",
"b. c #DCDDDE",
"n. c #DCDDDF",
"m. c #DDDEDE",
"M. c gray87",
"N. c #DFDEDE",
"B. c #DFDFDE",
"V. c #DFDFDF",
"C. c #E0DFDE",
"Z. c #E0DFDF",
"A. c #E0E0DF",
"S. c #E1E0DF",
"D. c #DCDEE0",
"F. c #DEDFE0",
"G. c #DFDFE0",
"H. c #E0DFE0",
"J. c gray88",
"K. c #E1E0E0",
"L. c #E0E0E1",
"P. c #E0E1E1",
"I. c #E1E1E1",
"U. c None",
/* pixels */
"U.U.U.U.U.U.U.U.U.U.U.U.U.U.U.U.U.U.U.U.U.U.U.U.U.U.U.O O O O O O O O O O U.U.U.U.U.U.U.U.U.U.U.U.U.U.U.U.U.U.U.U.U.U.U.U.U.U.U.",
"U.U.U.U.U.U.U.U.U.U.U.U.U.U.U.U.U.U.U.U.U.U.U.O O O O O 8 8 O O O 8 8 8 O O O O O U.U.U.U.U.U.U.U.U.U.U.U.U.U.U.U.U.U.U.U.U.U.U.",
"U.U.U.U.U.U.U.U.U.U.U.U.U.U.U.U.U.U.U.U.O 8 O # 8 b G ] 9.9.9.9.@.9.9.9.b G b 8 O O O O U.U.U.U.U.U.U.U.U.U.U.U.U.U.U.U.U.U.U.U.",
"U.U.U.U.U.U.U.U.U.U.U.U.U.U.U.U.U.U.O O O 8 b ] 9.M.M.M.J.J.J.J.J.J.J.@.G M.M.9.@.G 8 O O O U.U.U.U.U.U.U.U.U.U.U.U.U.U.U.U.U.U.",
"U.U.U.U.U.U.U.U.U.U.U.U.U.U.U.U.O O # b @.9.] ] J.J.J.J.J.J.J.J.J.M.@.G 9.J.J.J.J.M.9.@.b O O O U.U.U.U.U.U.U.U.U.U.U.U.U.U.U.U.",
"U.U.U.U.U.U.U.U.U.U.U.U.U.U.O O O b ] M.S.] A t.J.J.J.J.J.J.J.J.J.] G 9.J.J.J.J.J.J.J.J.G G b O O O U.U.U.U.U.U.U.U.U.U.U.U.U.U.",
"U.U.U.U.U.U.U.U.U.U.U.U.U.O O 8 ] t.F.V.] G h.S.J.J.J.J.J.J.J.M.] G M.J.J.J.J.J.J.J.M.] ] M.M.] 8 O O U.U.U.U.U.U.U.U.U.U.U.U.U.",
"U.U.U.U.U.U.U.U.U.U.U.U.O O b 9.J.J.V.] G t.J.J.J.J.J.J.J.J.M.@.G 9.J.J.J.J.J.J.J.M.G G M.M.J.J.9.b O O U.U.U.U.U.U.U.U.U.U.U.U.",
"U.U.U.U.U.U.U.U.U.U.U.O 8 G M.M.F.V.] G a.F.J.J.J.J.J.J.J.M.@.G M.J.J.J.J.J.J.J.M.] G M.J.J.J.J.J.M.G 8 O U.U.U.U.U.U.U.U.U.U.U.",
"U.U.U.U.U.U.U.U.U.U.O 8 ] M.J.J.M.] G 9.J.J.J.J.J.J.J.J.F.] G 9.M.J.J.J.J.J.J.M.] G M.M.J.J.J.J.J.J.9.b 8 O O U.U.U.U.U.U.U.U.U.",
"U.U.U.U.U.U.U.U.U.O 8 @.J.J.J.M.] G t.J.J.J.J.J.J.J.J.M.] G M.J.J.J.J.J.J.J.M.] ] M.J.J.J.J.J.J.J.9.G ] ] 8 O U.U.U.U.U.U.U.U.U.",
"U.U.U.U.U.U.U.U.O 8 ] M.J.J.M.] G t.J.J.J.J.J.J.J.J.S.@.G 9.J.J.J.J.J.J.M.M.G G M.J.J.J.J.J.J.J.M.G @.M.M.] O O U.U.U.U.U.U.U.U.",
"U.U.U.U.U.U.U.O 8 ] M.J.J.M.@.G t.J.J.J.J.J.J.J.J.S.] G 9.J.J.J.J.J.M.J.M.] ] M.M.J.J.J.J.J.J.9.G ] M.J.J.J.] 8 O U.U.U.U.U.U.U.",
"U.U.U.U.U.U.O O G J.J.J.M.@.G 9.J.J.J.J.J.J.J.J.F.] G 9.J.J.J.J.J.J.M.M.] G M.J.J.J.J.J.J.J.9.G ] M.J.J.J.J.M.] O O U.U.U.U.U.U.",
"U.U.U.U.U.O O b M.M.J.J.@.G M.M.J.J.J.J.J.J.S.M.] G h.S.J.J.J.J.J.J.M.] G M.J.J.J.J.J.J.J.M.G ] M.J.J.J.J.J.M.M.b O O U.U.U.U.U.",
"U.U.U.U.U.O 8 9.J.J.M.] G 9.J.J.J.J.J.J.J.J.M.] G t.F.S.J.J.J.F.J.J.M.@.M.M.J.J.J.J.J.J.9.G ] M.J.J.J.J.J.J.M.M.G 8 O U.U.U.U.U.",
"U.U.U.U.O O G J.J.J.] G M.M.J.J.J.J.J.J.J.M.@.G 9.J.J.M.9.9.] Y ] ] 7.9.M.J.J.H.J.J.J.9.G ] J.J.J.J.J.J.J.J.9.G @.] O O U.U.U.U.",
"U.U.U.U.O b M.J.M.] G 9.J.J.J.J.J.J.J.J.M.@.G 9.F.9.@.G 8 8 O O O $ $ 8 B ] 9.F.J.J.M.G ] V.J.J.J.J.J.J.M.M.G @.J.9.b O U.U.U.U.",
"U.U.U.O 8 ] M.M.@.G M.J.J.J.J.J.J.J.J.J.] G M.9.] 8 O O O O O O O O O O $ O 8 G 9.J.] @.M.J.J.J.J.J.J.J.9.G @.M.J.J.@.8 O U.U.U.",
"U.U.U.O 8 M.J.@.G 9.J.J.J.J.J.J.J.J.M.@.R t.@.b O O O O O O O O O O O O O O O O B 9.M.V.J.J.J.J.J.J.M.M.G @.M.J.J.J.M.b O U.U.U.",
"U.U.O O ] M.@.G 9.J.J.J.J.J.J.J.J.M.@.G M.@.8 + O O O O O O O O O O O O O O O O ; a F.F.J.J.J.J.J.J.9.G @.M.J.J.J.J.J.@.O O U.U.",
"U.U.O 8 9.] G 9.J.J.J.J.J.J.J.J.M.] G M.2.q O O O O O O O = a G 0 $ O O O O O O O * O.J.J.J.J.J.J.9.G ] J.J.J.J.J.J.J.M.8 8 U.U.",
"U.U.O G @.G M.M.J.J.J.J.J.J.J.J.@.G 9.J.J O O O O O O = 8 @.M.V.Z.] $ O O O O O O O B F.J.J.J.J.M.G ] J.J.J.J.J.J.J.J.9.b O U.U.",
"U.O O @.9.9.J.J.J.J.J.J.J.J.M.@.G 9.J.a.q O O O O O O = O.J.J.J.S.S.J O O O O O O * V F.J.J.J.9.G ] M.M.J.J.J.J.J.J.@.G G 8 O U.",
"U.O 8 9.J.J.J.J.J.J.J.J.J.J.] G M.J.J.M.{ G b 8 8 $ + u h.J.J.J.S.J.:.$ O O O O O O a h.J.J.M.] ] M.J.J.J.J.J.J.J.9.G @.9.8 8 U.",
"U.O b M.J.J.J.J.J.J.J.J.M.] G 9.M.J.J.S.J.Z.M.u.9.@.] ] F.J.J.J.J.J.U O O O O O O O V F.J.J.V.M.M.J.J.J.J.J.J.J.@.G 9.J.M.b O U.",
"U.O G M.J.J.J.J.J.J.J.J.@.G M.J.J.J.J.J.J.J.J.J.J.J.M.M.J.J.J.J.J.2.r O O O O O O O W J.J.J.J.J.J.J.J.J.J.J.J.9.G 9.J.J.M.G O U.",
"O O ] J.J.J.J.J.J.J.M.@.G 9.J.J.J.J.J.J.J.J.J.J.J.J.J.J.J.V.M.9.] r O O O O O O O u h.J.J.J.J.J.J.J.J.J.J.J.9.G 9.J.J.J.M.] O O ",
"O O @.J.J.J.J.J.J.J.@.G 9.J.J.J.J.J.J.J.J.J.J.J.J.J.J.J.J.>.q 8 O O O O O O O O 8 7.J.J.J.J.J.J.J.J.J.J.J.9.G 9.J.J.J.J.J.@.O O ",
"O 8 9.I.J.J.J.J.M.] G 9.J.J.J.J.J.J.J.J.J.J.J.J.J.J.J.J.J.U O O O O O O O O * b 9.J.J.J.J.J.J.J.J.J.J.J.9.G @.J.J.J.J.J.J.9.8 O ",
"O O @.J.J.J.J.J.@.G M.J.J.J.J.J.J.J.J.J.J.J.J.J.J.J.J.J.J.U O O O O O O O O = ] M.F.J.J.J.J.J.J.J.J.J.9.G 9.J.J.J.J.J.J.J.9.O O ",
"O O 9.J.J.J.J.@.G 9.M.J.J.J.J.J.J.J.J.J.J.J.J.J.J.J.J.J.S.T O O O O O O O * * = b O.F.J.J.J.J.J.J.J.9.G 9.J.J.J.J.J.J.J.J.@.8 O ",
"# # 9.I.V.V.] ~ t.J.J.J.J.J.V.V.J.J.J.J.J.J.J.J.J.J.J.J.Z.M O = O O O O O O O O O * ! F.F.F.J.J.J.9.A 9.J.J.J.J.J.J.J.J.M.@.8 8 ",
"# 8 9.J.V.] A t.J.J.J.J.J.F.S.V.J.J.J.J.J.J.J.J.J.J.J.J.Z.M a b b 8 O O O O O O O O = 6.J.J.J.J.M.G 9.F.J.J.J.J.J.J.J.9.G G O O ",
"O = 9.S.] G t.J.J.J.J.J.J.J.M.M.J.J.J.J.J.J.J.J.J.J.J.J.S.a.M.F.J.u.Y $ O O O O O O O V M.J.J.J.M.9.J.J.J.J.J.J.J.M.9.G @.9.8 O ",
"O = @.] G t.J.J.J.J.J.F.S.V.] 9.J.J.J.J.J.J.J.J.J.J.J.J.J.F.J.J.J.J.Z.J O O O O O O O = 7.F.J.J.J.J.J.J.J.J.J.J.J.M.G @.J.@.O O ",
"O O G ] t.J.J.J.J.J.J.J.M.~ ~ V.J.J.J.J.J.J.J.J.J.J.J.J.J.J.J.J.J.J.J.,.$ O O O O O O * O.J.J.J.J.J.J.J.J.J.J.J.9.G @.J.J.] O O ",
"U.O ~ M.J.J.J.J.J.J.S.V.~ W M.V.J.J.J.J.F.S.J.J.J.J.J.S.J.J.J.J.J.J.J.u.8 O O O O O O * R J.J.J.J.J.J.J.J.J.J.9.G ] J.J.J.G O U.",
"U.O b M.J.J.J.J.V.V.V.~ Y V.J.J.J.J.J.V.V.M.9.9.@.] U W F.F.J.J.J.J.S.u.$ O O O O O * = ! J.J.J.J.J.J.J.J.J.M.G @.M.J.J.M.b O U.",
"U.$ a 9.J.J.J.J.F.V.~ ~ V.J.J.J.J.S.S.] b b 0 # 8 # # y t.J.J.J.J.J.Z.2.8 O O O O O * = 6.J.J.J.J.J.J.J.J.9.G ] J.J.J.J.9.8 O U.",
"U.O O @.J.J.J.J.M.~ ~ V.V.S.J.J.J.J.J.>.$ O O O O O O * ] F.J.J.J.J.J.Y O O O O O O O = h.V.J.J.J.J.J.M.9.G @.M.J.J.J.J.9.O O U.",
"U.U.O ] J.J.J.M.~ W M.V.J.F.J.J.J.J.J.M.r # O O O O O O s 8.J.J.J.J.,.q O O O O O O = Z F.J.J.J.J.J.J.M.G @.M.J.J.J.J.J.] O U.U.",
"U.U.O 8 9.V.M.] Y M.J.J.J.J.J.J.J.9.@.J.{ + O O O O O O * u ] 7.@.U 8 O O O O O * * = 6.J.J.J.J.J.J.9.G @.M.J.J.J.J.J.9.8 O U.U.",
"U.U.O O @.M.~ G V.J.J.J.J.J.J.J.a.G @.J.Z.G = O O O O O * * O * 8 O O O O O O O O * R F.J.J.J.J.J.9.G ] J.J.J.J.J.J.J.@.8 O U.U.",
"U.U.U.O G G W M.J.J.J.J.J.J.J.9.G ] F.J.Z.M.] $ O O O O O O O O * O O O O O # O 8 W M.J.J.J.J.J.M.G ] M.J.J.J.J.J.J.M.b O U.U.U.",
"U.U.U.O # ] M.S.J.J.J.J.J.J.a.G ] S.J.J.S.S.F.@.b O O O O O O O O O O O O O $ b -.M.J.J.J.J.J.9.G ] J.M.J.J.J.J.J.J.9.8 O U.U.U.",
"U.U.U.U.$ A M.V.J.J.J.J.J.t.G { M.J.J.J.J.J.J.J.M.] G 8 O O O O O O O O 8 A @.M.J.J.J.J.J.J.t.G @.M.J.J.J.J.J.J.J.M.b O O U.U.U.",
"U.U.U.U.O $ O.S.J.J.J.F.t.G O.M.J.J.J.J.J.J.F.a.] M.M.9.] ] b G A G W ] 9.V.J.J.J.J.J.J.J.t.G ] M.J.J.J.J.J.J.J.J.@.8 O U.U.U.U.",
"U.U.U.U.U.O b 9.J.J.J.M.G ] M.J.J.J.J.J.J.J.9.G @.J.J.J.J.J.J.J.J.9.M.J.J.J.J.J.J.J.J.M.9.G ] J.J.J.J.J.J.J.J.J.9.b O U.U.U.U.U.",
"U.U.U.U.U.O O G M.J.9.G ] M.J.J.J.J.J.J.J.M.G ] M.J.J.J.J.J.J.J.9.G 9.J.J.J.J.J.J.J.J.M.G @.M.J.J.J.J.J.J.J.J.M.G O O U.U.U.U.U.",
"U.U.U.U.U.U.O 8 @.9.G @.J.J.J.J.J.J.J.J.9.G ] J.J.J.J.J.J.J.J.@.G 9.J.J.J.J.J.J.J.J.9.G @.M.J.J.J.J.J.J.J.J.M.] 8 O U.U.U.U.U.U.",
"U.U.U.U.U.U.U.O 8 G @.J.J.J.J.J.J.J.J.9.G @.M.J.J.J.J.J.J.J.9.G 9.J.J.J.J.J.J.J.J.9.G ] J.J.J.J.J.J.J.J.J.J.9.8 O U.U.U.U.U.U.U.",
"U.U.U.U.U.U.U.O O 8 9.J.J.J.J.J.J.J.9.G ] M.J.J.J.J.J.J.J.9.G 9.J.J.J.J.J.J.J.J.M.G ] M.J.J.J.J.J.J.J.J.J.9.b O O U.U.U.U.U.U.U.",
"U.U.U.U.U.U.U.U.O O b 9.J.J.J.J.M.M.G @.M.J.J.J.J.J.J.J.9.G 9.J.J.J.J.J.J.J.J.9.G ] J.M.J.J.J.J.J.J.J.J.9.b O O U.U.U.U.U.U.U.U.",
"U.U.U.U.U.U.U.U.U.O O 8 9.J.J.J.9.G ] J.J.J.J.J.J.J.J.@.G 9.J.J.J.J.J.J.J.J.9.G @.M.J.J.J.J.J.J.J.J.J.@.b O O U.U.U.U.U.U.U.U.U.",
"U.U.U.U.U.U.U.U.U.U.O 8 8 ] M.M.G @.M.J.J.J.J.J.J.J.9.G @.J.J.J.J.J.J.J.M.M.G @.M.J.J.J.J.J.J.J.J.J.@.b O O U.U.U.U.U.U.U.U.U.U.",
"U.U.U.U.U.U.U.U.U.U.U.O O 8 G @.@.J.J.J.J.J.J.J.J.9.G 9.J.J.J.J.J.J.J.J.M.b ] M.J.J.J.J.J.J.J.J.M.G 8 O O U.U.U.U.U.U.U.U.U.U.U.",
"U.U.U.U.U.U.U.U.U.U.U.U.U.O O b @.M.J.J.J.J.J.J.9.G @.J.J.J.J.J.J.J.J.9.G ] J.J.J.J.J.J.J.J.M.@.b O O U.U.U.U.U.U.U.U.U.U.U.U.U.",
"U.U.U.U.U.U.U.U.U.U.U.U.U.U.O O 8 G 9.J.J.J.J.9.G @.J.J.J.J.J.J.J.J.M.G @.M.J.J.J.J.J.M.J.9.] 8 O O U.U.U.U.U.U.U.U.U.U.U.U.U.U.",
"U.U.U.U.U.U.U.U.U.U.U.U.U.U.U.U.O 8 8 G 9.J.9.G 9.J.J.J.J.J.J.J.J.9.G ] M.J.J.J.J.J.M.9.G 8 O O U.U.U.U.U.U.U.U.U.U.U.U.U.U.U.U.",
"U.U.U.U.U.U.U.U.U.U.U.U.U.U.U.U.U.O O O 8 b b ] M.J.J.J.J.J.J.M.9.b @.J.J.J.J.M.9.@.G 8 O O O U.U.U.U.U.U.U.U.U.U.U.U.U.U.U.U.U.",
"U.U.U.U.U.U.U.U.U.U.U.U.U.U.U.U.U.U.U.O O O O 8 b G @.@.9.M.M.M.@.] M.9.9.@.G b 8 O O O O U.U.U.U.U.U.U.U.U.U.U.U.U.U.U.U.U.U.U.",
"U.U.U.U.U.U.U.U.U.U.U.U.U.U.U.U.U.U.U.U.U.U.O O O O 8 8 8 8 8 8 b 8 8 8 8 O O O O O U.U.U.U.U.U.U.U.U.U.U.U.U.U.U.U.U.U.U.U.U.U.",
"U.U.U.U.U.U.U.U.U.U.U.U.U.U.U.U.U.U.U.U.U.U.U.U.U.U.O O O O 8 O O 8 O O O O U.U.U.U.U.U.U.U.U.U.U.U.U.U.U.U.U.U.U.U.U.U.U.U.U.U."
};
